<?xml version="1.0" encoding="UTF-8"?>
<svg width="39px" height="38px" viewBox="0 0 39 38" version="1.1" xmlns="http://www.w3.org/2000/svg" xmlns:xlink="http://www.w3.org/1999/xlink">
    <!-- Generator: Sketch 42 (36781) - http://www.bohemiancoding.com/sketch -->
    <title>Group 14</title>
    <desc>Created with Sketch.</desc>
    <defs></defs>
    <g id="Page-1" stroke="none" stroke-width="1" fill="none" fill-rule="evenodd">
        <g id="Hom-page-ver.2" transform="translate(-310.000000, -620.000000)">
            <g id="Group-14" transform="translate(310.000000, 621.000000)">
                <text id="ACCOUNT" font-family="Roboto-Bold, Roboto" font-size="7.5" font-weight="bold" letter-spacing="0.46875" fill="#474747">
                    <tspan x="0.995483398" y="36">ACCOUNT</tspan>
                </text>
                <g id="Group-2" transform="translate(10.000000, 0.000000)" stroke="#474748">
                    <path d="M5.68146933,9.97353864 C4.54496712,8.92308032 3.83333333,7.41964565 3.83333333,5.75 C3.83333333,2.57436269 6.40769602,0 9.58333333,0 C12.7589706,0 15.3333333,2.57436269 15.3333333,5.75 C15.3333333,7.51335758 14.5395742,9.09132278 13.2898679,10.1460837 C16.289015,11.0717882 18.3467616,13.17986 18.3467616,16.7659631 C18.3467616,21.8322814 14.2396991,23 9.17338081,23 C4.10706249,23 0,21.8322814 0,16.7659631 C0,12.9359891 2.34713474,10.791907 5.68146933,9.97353864 Z M9.58333333,11.5 C12.7589706,11.5 15.3333333,8.92563731 15.3333333,5.75 C15.3333333,2.57436269 12.7589706,0 9.58333333,0 C6.40769602,0 3.83333333,2.57436269 3.83333333,5.75 C3.83333333,8.92563731 6.40769602,11.5 9.58333333,11.5 Z" id="Combined-Shape"></path>
                </g>
            </g>
        </g>
    </g>
</svg>