<?xml version="1.0" encoding="UTF-8"?>
<svg width="36px" height="38px" viewBox="0 0 36 38" version="1.1" xmlns="http://www.w3.org/2000/svg" xmlns:xlink="http://www.w3.org/1999/xlink">
    <!-- Generator: Sketch 42 (36781) - http://www.bohemiancoding.com/sketch -->
    <title>Group 16</title>
    <desc>Created with Sketch.</desc>
    <defs></defs>
    <g id="Page-1" stroke="none" stroke-width="1" fill="none" fill-rule="evenodd">
        <g id="Hom-page-ver.2" transform="translate(-214.000000, -620.000000)">
            <g id="Group-4" transform="translate(0.000000, 612.000000)">
                <g id="Group-16" transform="translate(214.000000, 9.000000)">
                    <g id="Group-15">
                        <text id="MESSAGE" font-family="SanFranciscoDisplay-Bold, San Francisco Display" font-size="7.5" font-weight="bold" letter-spacing="0.46875" fill="#474747">
                            <tspan x="0.564819336" y="36">MESSAGE</tspan>
                        </text>
                        <g id="Group" transform="translate(8.000000, 0.000000)">
                            <path d="M5.50976563,16.7733853 C5.48242187,16.9002429 5.46875,17.0130051 5.46875,17.1398627 L5.46875,20.156253 C5.46875,21.1711133 6.16601562,21.2415897 6.87695313,20.5227303 L10.9375,16.9143382 L13.4257812,16.9143382 C18.0878906,16.9143382 21.875,13.0804215 21.875,8.34440683 C21.875,3.60839214 18.0878906,0 13.4257812,0 L8.44921875,0 C3.78710938,8.01224008e-14 0,3.83391665 0,8.56993134 C0,12.4320386 2.03710938,15.7162392 5.50976563,16.7733853 Z" id="Shape" stroke="#474748"></path>
                            <path d="M5.75480769,6.5625 L17.9121868,6.5625" id="Line" stroke="#474747" stroke-linecap="round" stroke-linejoin="round"></path>
                            <path d="M5.73611111,9.1875 L13.5138889,9.1875" id="Line-Copy" stroke="#474747" stroke-linecap="round" stroke-linejoin="round"></path>
                        </g>
                    </g>
                </g>
            </g>
        </g>
    </g>
</svg>