<?xml version="1.0" encoding="UTF-8"?>
<svg width="38px" height="38px" viewBox="0 0 38 38" version="1.1" xmlns="http://www.w3.org/2000/svg" xmlns:xlink="http://www.w3.org/1999/xlink">
    <!-- Generator: Sketch 42 (36781) - http://www.bohemiancoding.com/sketch -->
    <title>Group 21</title>
    <desc>Created with Sketch.</desc>
    <defs></defs>
    <g id="Page-1" stroke="none" stroke-width="1" fill="none" fill-rule="evenodd">
        <g id="Hom-page-ver.2" transform="translate(-111.000000, -620.000000)">
            <g id="Group-4" transform="translate(0.000000, 612.000000)">
                <g id="Group-21" transform="translate(111.000000, 9.000000)">
                    <g id="Group-14">
                        <g id="Group-13">
                            <text id="MOMENTS" font-family="SanFranciscoDisplay-Bold, San Francisco Display" font-size="7.5" font-weight="bold" letter-spacing="0.46875" fill="#474747">
                                <tspan x="0.544921875" y="36">MOMENTS</tspan>
                            </text>
                            <g id="Group-11" transform="translate(8.000000, 0.000000)" stroke="#474747">
                                <g id="Group-3">
                                    <path d="M5.2993526,11.3158202 L5.2993526,5.90246652 L5.2993526,10.4258666 L5.2993526,11.6384428 L5.16717818,11.7857066 C4.24487286,12.8050643 3.73561259,14.1931038 3.73561259,15.6970742 C3.73561259,18.8094576 6.1196115,21.3442745 9.04980177,21.3442745 C9.09645157,21.3442745 9.14212949,21.3348746 9.19655425,21.3202527 C9.62903673,21.1990995 10.1538469,20.5964669 10.5873013,20.0993211 C10.8788625,19.7651055 11.6432388,19.4444673 11.927997,19.2073831 L11.927997,17.2501326 C11.686973,17.204178 10.9711902,17.1258462 10.754463,17.0193149 C9.79425476,16.5461909 9.12560769,15.5069891 9.12560769,14.3027683 C9.12560769,12.651534 14.7274706,12.651534 14.7274706,14.3027683 C14.7274706,15.5069891 14.0617392,16.5461909 13.100559,17.0193149 C12.8848037,17.1258462 12.1719365,17.204178 11.927997,17.2501326 L11.927997,19.2073831 C12.1991489,19.4476006 12.9761595,19.7671943 13.265777,20.0993211 C13.6992314,20.5964669 14.221126,21.1990995 14.6536084,21.3202527 C14.7080332,21.3348746 14.7517674,21.3442745 14.8003609,21.3442745 C17.7305512,21.3442745 20.1145501,18.8125908 20.1145501,15.6970742 C20.1145501,14.1931038 19.6082054,12.8050643 18.6859001,11.7857066 L18.5556694,11.6384428 L18.5556694,10.4258666 L18.5556694,5.90246652 C18.5556694,5.6225609 18.5556694,11.3158202 18.5556694,11.3158202 C19.1776667,11.6709243 20.9989525,11.8086839 22.1894941,11.8086839 C25.5395325,11.8086839 23.0826433,0.215578169 16.1911079,0.215578169 L11.9294548,0.215578169 L7.66488597,0.215578169 C0.770434976,0.215578169 -1.6845105,11.8086839 1.66844354,11.8086839 C2.85898519,11.8086839 4.67443972,11.6709243 5.2993526,11.3158202 Z" id="Stroke-101"></path>
                                </g>
                            </g>
                        </g>
                    </g>
                </g>
            </g>
        </g>
    </g>
</svg>