<?xml version="1.0" encoding="UTF-8"?>
<svg width="40px" height="38px" viewBox="0 0 40 38" version="1.1" xmlns="http://www.w3.org/2000/svg" xmlns:xlink="http://www.w3.org/1999/xlink">
    <!-- Generator: Sketch 42 (36781) - http://www.bohemiancoding.com/sketch -->
    <title>Group 7</title>
    <desc>Created with Sketch.</desc>
    <defs>
        <path d="M4.73058223,10.2022849 L4.73058223,5.38681489 C4.73058223,5.13136241 4.93742249,4.92547533 5.19478133,4.92547533 C5.45214018,4.92547533 5.65898044,5.13136241 5.65898044,5.38681489 L5.65898044,9.51504143 L5.65898044,10.6216845 L5.52934783,10.756083 C4.62477915,11.6863875 4.12531235,12.953165 4.12531235,14.3257455 C4.12531235,17.1662246 6.46346513,19.4795947 9.33730558,19.4795947 C9.38305827,19.4795947 9.42785777,19.4710161 9.4812359,19.4576715 C9.90540141,19.3471026 10.4201191,18.7971172 10.8452378,18.3434031 C11.1311921,18.0383852 11.404755,17.7457586 11.684037,17.5293866 L11.684037,15.7431255 C11.4476481,15.7011856 11.2217443,15.629697 11.0091849,15.5324725 C10.0674422,15.1006816 9.4116537,14.1522666 9.4116537,13.053249 C9.4116537,11.54627 10.6403039,10.324292 12.1587211,10.3214325 C13.6714192,10.324292 14.9057885,11.54627 14.9057885,13.053249 C14.9057885,14.1522666 14.2528596,15.1006816 13.3101636,15.5324725 C13.0985575,15.629697 12.8755131,15.7011856 12.6362647,15.7431255 L12.6362647,17.5293866 C12.9022022,17.7486182 13.1881565,18.0402915 13.4722044,18.3434031 C13.8973231,18.7971172 14.4091812,19.3471026 14.8333467,19.4576715 C14.8867249,19.4710161 14.929618,19.4795947 14.977277,19.4795947 C17.8511175,19.4795947 20.1892703,17.1690842 20.1892703,14.3257455 C20.1892703,12.953165 19.692663,11.6863875 18.7880943,10.756083 L18.6603681,10.6216845 L18.6603681,9.51504143 L18.6603681,5.38681489 C18.6603681,5.13136241 18.8672084,4.92547533 19.1255204,4.92547533 C19.3828792,4.92547533 19.592579,5.13136241 19.592579,5.38681489 L19.592579,10.2022849 C20.2026148,10.5263664 21.0566649,10.777053 22.2243115,10.777053 C25.5099261,10.777053 23.1002848,0.196744816 16.3412789,0.196744816 L12.1615806,0.196744816 L7.97902278,0.196744816 C1.21715738,0.196744816 -1.19057761,10.777053 2.09789654,10.777053 C3.26554316,10.777053 4.1176869,10.5263664 4.73058223,10.2022849 Z" id="path-1"></path>
        <mask id="mask-2" maskContentUnits="userSpaceOnUse" maskUnits="objectBoundingBox" x="-1" y="-1" width="25.04" height="21.2828499">
            <rect x="-0.36" y="-0.803255184" width="25.04" height="21.2828499" fill="white"></rect>
            <use xlink:href="#path-1" fill="black"></use>
        </mask>
    </defs>
    <g id="Page-1" stroke="none" stroke-width="1" fill="none" fill-rule="evenodd">
        <g id="Hom-page-ver.2" transform="translate(-110.000000, -620.000000)">
            <g id="Group-7" transform="translate(110.000000, 621.000000)">
                <text id="MOMENTS" font-family="Roboto-Bold, Roboto" font-size="7.5" font-weight="bold" letter-spacing="0.46875" fill="#474747">
                    <tspan x="0.400512695" y="36">MOMENTS</tspan>
                </text>
                <g id="Group-11" transform="translate(9.000000, 0.000000)" stroke="#474748">
                    <g id="Group-3">
                        <use id="Stroke-101" mask="url(#mask-2)" stroke-width="2" xlink:href="#path-1"></use>
                        <path d="M11.1136,6.86682482 L11.1136,6.90138482 C11.09536,7.38714482 10.6912,7.77690482 10.1968,7.77690482 C9.9184,7.77690482 9.67264,7.65498482 9.50464,7.46106482 C9.36544,7.30170482 9.28,7.09242482 9.28,6.86682482 C9.28,6.36570482 9.69184,5.95674482 10.1968,5.95674482 C10.70176,5.95674482 11.1136,6.36570482 11.1136,6.86682482 Z" id="Fill-98"></path>
                        <path d="M14.0608,5.95674482 C14.5552,5.97018482 14.9536,6.37050482 14.9536,6.86682482 C14.9536,7.09530482 14.86816,7.30170482 14.72896,7.46106482 C14.56576,7.64922482 14.32576,7.76922482 14.05888,7.77402482 L14.0368,7.77402482 C13.5424,7.77402482 13.1392,7.38714482 13.12,6.89850482 L13.12,6.86394482 C13.12576,6.36570482 13.53472,5.95674482 14.03968,5.95674482 L14.0608,5.95674482 Z" id="Fill-99"></path>
                    </g>
                </g>
            </g>
        </g>
    </g>
</svg>